<svg width="22" height="22" viewBox="0 0 22 22" fill="none" xmlns="http://www.w3.org/2000/svg">
<path d="M20.8543 22H13.796C13.4293 22 13.1085 21.6792 13.1085 21.3125V15.675C13.1085 14.4833 12.146 13.5667 11.0002 13.5667C9.85433 13.5667 8.89183 14.5292 8.89183 15.675V21.3125C8.89183 21.6792 8.571 22 8.20433 22H1.146C0.779329 22 0.458496 21.6792 0.458496 21.3125V10.5417C0.458496 10.3583 0.550163 10.175 0.641829 10.0375L10.496 0.183331C10.771 -0.0916687 11.2293 -0.0916687 11.4585 0.183331L21.3127 10.0375C21.4502 10.175 21.496 10.3583 21.496 10.5417V21.3125C21.5418 21.6792 21.221 22 20.8543 22Z" fill="#262626"/>
</svg>
