<svg width="22" height="22" viewBox="0 0 22 22" fill="none" xmlns="http://www.w3.org/2000/svg">
<path d="M16.5918 7.65418L13.2918 10.175C13.0627 10.3583 12.7418 10.3583 12.5127 10.175L10.0377 8.34168C9.30433 7.79168 8.25016 7.97501 7.746 8.75418L4.62933 13.6583C4.3085 14.1167 4.90433 14.6667 5.36266 14.3458L8.7085 11.825C8.93766 11.6417 9.2585 11.6417 9.48766 11.825L11.9627 13.6583C12.696 14.2083 13.7502 14.025 14.2543 13.2458L17.371 8.34168C17.646 7.83751 17.0502 7.33334 16.5918 7.65418ZM11.0002 0.458344C5.04183 0.458344 0.458496 4.81251 0.458496 10.6792C0.458496 13.75 1.696 16.4083 3.7585 18.2417C3.94183 18.3792 4.0335 18.6083 4.0335 18.8375L4.12516 20.7167C4.12516 21.175 4.53766 21.5417 4.95016 21.5417C5.04183 21.5417 5.17933 21.5417 5.271 21.45L7.37933 20.5333C7.471 20.4875 7.6085 20.4417 7.70016 20.4417C7.79183 20.4417 7.83766 20.4417 7.92933 20.4875C8.89183 20.7625 9.90016 20.9 11.0002 20.9C16.9585 20.9 21.5418 16.5458 21.5418 10.6792C21.5418 4.81251 16.9585 0.458344 11.0002 0.458344ZM11.0002 19.525C10.0835 19.525 9.16683 19.3875 8.296 19.1583C8.11266 19.1125 7.92933 19.0667 7.70016 19.0667C7.37933 19.0667 7.10433 19.1125 6.7835 19.25L5.4085 19.8458V18.7917C5.4085 18.1958 5.1335 17.6458 4.67516 17.2333C2.84183 15.5833 1.8335 13.2458 1.8335 10.6792C1.8335 5.63751 5.77516 1.83334 11.0002 1.83334C16.2252 1.83334 20.1668 5.63751 20.1668 10.6792C20.1668 15.7208 16.2252 19.525 11.0002 19.525Z" fill="#262626"/>
</svg>
